<svg width="236" height="30" viewBox="0 0 236 30" fill="none" xmlns="http://www.w3.org/2000/svg">
<g clip-path="url(#clip0_22_11)">
<path d="M10.9175 1.2091L0.0532227 12.1168L10.9169 23.0235C11.151 23.2597 11.4302 23.4474 11.7383 23.5756C12.0463 23.7037 12.3771 23.7698 12.7112 23.7699C13.0453 23.77 13.3761 23.7042 13.6843 23.5762C13.9924 23.4482 14.2718 23.2607 14.506 23.0246C14.9829 22.5443 15.2502 21.8977 15.2504 21.2239C15.2506 20.5502 14.9837 19.9033 14.5072 19.4228L7.61971 12.5112L5.54127 13.8121L14.5077 4.80978C14.9849 4.33002 15.2518 3.68306 15.2504 3.00944C15.2518 2.33527 14.9845 1.68783 14.5066 1.20796C14.2723 0.971916 13.993 0.784461 13.6848 0.656537C13.3767 0.528614 13.0459 0.462785 12.7118 0.462891C12.3777 0.462997 12.0469 0.529036 11.7389 0.657154C11.4308 0.785273 11.1516 0.972904 10.9175 1.2091Z" fill="#1FA2FF"/>
<path d="M36.0134 1.20969L46.8776 12.1169L36.0139 23.0235C35.7799 23.2598 35.5006 23.4474 35.1926 23.5756C34.8845 23.7038 34.5537 23.7698 34.2196 23.7699C33.8855 23.77 33.5547 23.7042 33.2465 23.5762C32.9384 23.4483 32.659 23.2607 32.4248 23.0246C31.948 22.5444 31.6806 21.8977 31.6804 21.2239C31.6802 20.5502 31.9471 19.9034 32.4237 19.4228L39.3111 12.5118L41.3896 13.8126L32.4225 4.81038C31.9453 4.33061 31.6784 3.68365 31.6798 3.01004C31.6784 2.33586 31.9458 1.68842 32.4237 1.20856C32.6579 0.972353 32.9373 0.784763 33.2455 0.656745C33.5537 0.528726 33.8846 0.462846 34.2188 0.462952C34.5529 0.463058 34.8838 0.529148 35.1919 0.657362C35.5 0.785575 35.7793 0.973342 36.0134 1.20969Z" fill="#1FA2FF"/>
<path d="M29.7908 2.08708C29.5433 1.45917 29.0556 0.953481 28.4338 0.679996C28.1288 0.544956 27.7996 0.471499 27.4655 0.463911C27.1315 0.456324 26.7992 0.51476 26.4882 0.635807C26.1772 0.756854 25.8937 0.938085 25.6541 1.16892C25.4146 1.39975 25.2238 1.67556 25.0931 1.98024L17.167 20.2007C16.8997 20.8201 16.8898 21.5189 17.1395 22.1454C17.3869 22.7733 17.8746 23.279 18.4964 23.5525C18.8015 23.6876 19.1307 23.761 19.4647 23.7686C19.7988 23.7762 20.131 23.7177 20.442 23.5967C20.753 23.4757 21.0366 23.2944 21.2761 23.0636C21.5157 22.8328 21.7064 22.5569 21.8372 22.2523L29.7633 4.03177C30.0306 3.41243 30.0405 2.71361 29.7908 2.08708Z" fill="#1FA2FF"/>
<path d="M70.7141 8.54332H66.7298C66.6161 7.88991 66.4066 7.31108 66.1012 6.80682C65.7958 6.29545 65.4158 5.86222 64.9613 5.5071C64.5067 5.15199 63.9883 4.88565 63.4059 4.7081C62.8306 4.52344 62.2092 4.43111 61.5415 4.43111C60.3555 4.43111 59.3043 4.7294 58.3881 5.32599C57.4719 5.91548 56.7546 6.78196 56.2362 7.92543C55.7177 9.06179 55.4585 10.4503 55.4585 12.0909C55.4585 13.7599 55.7177 15.1662 56.2362 16.3097C56.7617 17.446 57.479 18.3054 58.3881 18.8878C59.3043 19.4631 60.3519 19.7507 61.5309 19.7507C62.1843 19.7507 62.7951 19.6655 63.3633 19.495C63.9386 19.3175 64.4535 19.0582 64.908 18.7173C65.3697 18.3764 65.7567 17.9574 66.0692 17.4602C66.3888 16.9631 66.609 16.3949 66.7298 15.7557L70.7141 15.777C70.565 16.8139 70.2418 17.7869 69.7447 18.696C69.2546 19.6051 68.6119 20.4077 67.8164 21.1037C67.021 21.7926 66.0906 22.3324 65.0252 22.723C63.9599 23.1065 62.7773 23.2983 61.4776 23.2983C59.56 23.2983 57.8484 22.8544 56.3427 21.9666C54.837 21.0788 53.6509 19.7969 52.7844 18.1207C51.918 16.4446 51.4847 14.4347 51.4847 12.0909C51.4847 9.74006 51.9215 7.73011 52.7951 6.06108C53.6687 4.38494 54.8583 3.10298 56.364 2.2152C57.8697 1.32741 59.5742 0.883522 61.4776 0.883522C62.6921 0.883522 63.8214 1.05398 64.8654 1.39489C65.9094 1.7358 66.8398 2.23651 67.6566 2.89702C68.4734 3.55043 69.1445 4.35298 69.6701 5.30469C70.2028 6.24929 70.5508 7.32884 70.7141 8.54332ZM81.301 23.3196C79.7029 23.3196 78.318 22.968 77.1461 22.2649C75.9743 21.5618 75.0652 20.5781 74.4189 19.3139C73.7797 18.0497 73.46 16.5724 73.46 14.8821C73.46 13.1918 73.7797 11.7109 74.4189 10.4396C75.0652 9.16832 75.9743 8.18111 77.1461 7.47798C78.318 6.77486 79.7029 6.4233 81.301 6.4233C82.899 6.4233 84.2839 6.77486 85.4558 7.47798C86.6277 8.18111 87.5332 9.16832 88.1724 10.4396C88.8187 11.7109 89.1419 13.1918 89.1419 14.8821C89.1419 16.5724 88.8187 18.0497 88.1724 19.3139C87.5332 20.5781 86.6277 21.5618 85.4558 22.2649C84.2839 22.968 82.899 23.3196 81.301 23.3196ZM81.3223 20.2301C82.1887 20.2301 82.9132 19.9922 83.4956 19.5163C84.0779 19.0334 84.5112 18.3871 84.7953 17.5774C85.0865 16.7678 85.2321 15.8658 85.2321 14.8714C85.2321 13.87 85.0865 12.9645 84.7953 12.1548C84.5112 11.3381 84.0779 10.6882 83.4956 10.2053C82.9132 9.7223 82.1887 9.48082 81.3223 9.48082C80.4345 9.48082 79.6958 9.7223 79.1064 10.2053C78.524 10.6882 78.0872 11.3381 77.796 12.1548C77.5119 12.9645 77.3699 13.87 77.3699 14.8714C77.3699 15.8658 77.5119 16.7678 77.796 17.5774C78.0872 18.3871 78.524 19.0334 79.1064 19.5163C79.6958 19.9922 80.4345 20.2301 81.3223 20.2301ZM98.4876 23.2876C97.2021 23.2876 96.0515 22.9574 95.0359 22.2969C94.0202 21.6364 93.2177 20.6776 92.6282 19.4205C92.0387 18.1634 91.744 16.6364 91.744 14.8395C91.744 13.0213 92.0423 11.4872 92.6388 10.2372C93.2425 8.98011 94.0558 8.03196 95.0785 7.39276C96.1012 6.74645 97.2411 6.4233 98.4982 6.4233C99.457 6.4233 100.245 6.58665 100.863 6.91335C101.481 7.23295 101.971 7.62003 102.333 8.07457C102.696 8.52202 102.976 8.9446 103.175 9.34233H103.335V1.18182H107.202V23H103.409V20.4219H103.175C102.976 20.8196 102.689 21.2422 102.312 21.6896C101.936 22.13 101.439 22.5064 100.821 22.8189C100.203 23.1314 99.4251 23.2876 98.4876 23.2876ZM99.5636 20.1236C100.38 20.1236 101.076 19.9034 101.652 19.4631C102.227 19.0156 102.664 18.3942 102.962 17.5987C103.26 16.8033 103.409 15.8764 103.409 14.8182C103.409 13.7599 103.26 12.8402 102.962 12.0589C102.671 11.2777 102.238 10.6705 101.662 10.2372C101.094 9.80398 100.395 9.58736 99.5636 9.58736C98.7042 9.58736 97.9869 9.81108 97.4116 10.2585C96.8363 10.706 96.4031 11.3239 96.1119 12.1122C95.8207 12.9006 95.6751 13.8026 95.6751 14.8182C95.6751 15.8409 95.8207 16.7536 96.1119 17.5561C96.4102 18.3516 96.8469 18.9801 97.4222 19.4418C98.0046 19.8963 98.7184 20.1236 99.5636 20.1236ZM118.556 23.3196C116.915 23.3196 115.498 22.9787 114.305 22.2969C113.119 21.608 112.206 20.6349 111.567 19.3778C110.928 18.1136 110.608 16.6257 110.608 14.9141C110.608 13.2308 110.928 11.7536 111.567 10.4822C112.214 9.20383 113.116 8.20952 114.273 7.49929C115.431 6.78196 116.791 6.4233 118.354 6.4233C119.362 6.4233 120.314 6.58665 121.209 6.91335C122.111 7.23295 122.906 7.73011 123.595 8.40483C124.291 9.07955 124.838 9.93892 125.236 10.983C125.633 12.0199 125.832 13.2557 125.832 14.6903V15.8729H112.42V13.2734H122.135C122.128 12.5348 121.969 11.8778 121.656 11.3026C121.344 10.7202 120.907 10.2621 120.346 9.92827C119.792 9.59446 119.145 9.42756 118.407 9.42756C117.618 9.42756 116.926 9.61932 116.329 10.0028C115.733 10.3793 115.268 10.8764 114.934 11.4943C114.607 12.1051 114.44 12.7763 114.433 13.5078V15.777C114.433 16.7287 114.607 17.5455 114.955 18.2273C115.303 18.902 115.79 19.4205 116.415 19.7827C117.04 20.1378 117.771 20.3153 118.609 20.3153C119.17 20.3153 119.678 20.2372 120.133 20.081C120.587 19.9176 120.981 19.6797 121.315 19.3672C121.649 19.0547 121.901 18.6676 122.072 18.206L125.672 18.6108C125.445 19.5625 125.012 20.3935 124.373 21.1037C123.741 21.8068 122.931 22.3537 121.944 22.7443C120.956 23.1278 119.827 23.3196 118.556 23.3196Z" fill="black"/>
<path d="M129.497 23V1.18182H133.449V19.6868H143.059V23H129.497ZM153.456 23.3196C151.858 23.3196 150.473 22.968 149.301 22.2649C148.13 21.5618 147.22 20.5781 146.574 19.3139C145.935 18.0497 145.615 16.5724 145.615 14.8821C145.615 13.1918 145.935 11.7109 146.574 10.4396C147.22 9.16832 148.13 8.18111 149.301 7.47798C150.473 6.77486 151.858 6.4233 153.456 6.4233C155.054 6.4233 156.439 6.77486 157.611 7.47798C158.783 8.18111 159.688 9.16832 160.328 10.4396C160.974 11.7109 161.297 13.1918 161.297 14.8821C161.297 16.5724 160.974 18.0497 160.328 19.3139C159.688 20.5781 158.783 21.5618 157.611 22.2649C156.439 22.968 155.054 23.3196 153.456 23.3196ZM153.478 20.2301C154.344 20.2301 155.068 19.9922 155.651 19.5163C156.233 19.0334 156.666 18.3871 156.951 17.5774C157.242 16.7678 157.387 15.8658 157.387 14.8714C157.387 13.87 157.242 12.9645 156.951 12.1548C156.666 11.3381 156.233 10.6882 155.651 10.2053C155.068 9.7223 154.344 9.48082 153.478 9.48082C152.59 9.48082 151.851 9.7223 151.262 10.2053C150.679 10.6882 150.242 11.3381 149.951 12.1548C149.667 12.9645 149.525 13.87 149.525 14.8714C149.525 15.8658 149.667 16.7678 149.951 17.5774C150.242 18.3871 150.679 19.0334 151.262 19.5163C151.851 19.9922 152.59 20.2301 153.478 20.2301ZM175 16.1179V6.63636H178.857V23H175.117V20.0916H174.947C174.578 21.0078 173.97 21.7571 173.125 22.3395C172.287 22.9219 171.254 23.2131 170.025 23.2131C168.953 23.2131 168.004 22.9751 167.18 22.4993C166.364 22.0163 165.725 21.3168 165.263 20.4006C164.801 19.4773 164.57 18.3622 164.57 17.0554V6.63636H168.427V16.4588C168.427 17.4957 168.711 18.3196 169.279 18.9304C169.847 19.5412 170.593 19.8466 171.516 19.8466C172.085 19.8466 172.635 19.7081 173.168 19.4311C173.7 19.1541 174.137 18.7422 174.478 18.1953C174.826 17.6413 175 16.9489 175 16.1179ZM186.679 13.4119V23H182.822V6.63636H186.508V9.4169H186.7C187.077 8.50071 187.677 7.77273 188.501 7.23295C189.332 6.69318 190.358 6.4233 191.579 6.4233C192.709 6.4233 193.692 6.66477 194.53 7.14773C195.376 7.63068 196.029 8.33026 196.491 9.24645C196.959 10.1626 197.19 11.2741 197.183 12.581V23H193.327V13.1776C193.327 12.0838 193.043 11.228 192.474 10.6101C191.913 9.99219 191.136 9.68324 190.141 9.68324C189.467 9.68324 188.866 9.83239 188.341 10.1307C187.822 10.4219 187.414 10.8445 187.116 11.3984C186.824 11.9524 186.679 12.6236 186.679 13.4119ZM208.22 29.4773C206.835 29.4773 205.646 29.2891 204.651 28.9126C203.657 28.5433 202.858 28.0462 202.254 27.4212C201.65 26.7962 201.231 26.1037 200.997 25.3438L204.47 24.5021C204.626 24.8217 204.854 25.1378 205.152 25.4503C205.45 25.7699 205.851 26.0327 206.356 26.2386C206.867 26.4517 207.51 26.5582 208.284 26.5582C209.378 26.5582 210.283 26.2919 211.001 25.7592C211.718 25.2337 212.077 24.3672 212.077 23.1598V20.0597H211.885C211.686 20.4574 211.395 20.8658 211.011 21.2848C210.635 21.7038 210.134 22.0554 209.509 22.3395C208.891 22.6236 208.114 22.7656 207.176 22.7656C205.919 22.7656 204.779 22.4709 203.756 21.8814C202.741 21.2848 201.931 20.397 201.327 19.218C200.731 18.032 200.432 16.5476 200.432 14.7649C200.432 12.968 200.731 11.4517 201.327 10.2159C201.931 8.97301 202.744 8.03196 203.767 7.39276C204.79 6.74645 205.93 6.4233 207.187 6.4233C208.146 6.4233 208.934 6.58665 209.552 6.91335C210.177 7.23295 210.674 7.62003 211.043 8.07457C211.413 8.52202 211.693 8.9446 211.885 9.34233H212.098V6.63636H215.901V23.2663C215.901 24.6655 215.567 25.8232 214.9 26.7393C214.232 27.6555 213.32 28.3409 212.162 28.7955C211.004 29.25 209.69 29.4773 208.22 29.4773ZM208.252 19.7401C209.069 19.7401 209.765 19.5412 210.34 19.1435C210.915 18.7457 211.352 18.174 211.65 17.4283C211.949 16.6825 212.098 15.7876 212.098 14.7436C212.098 13.7138 211.949 12.8118 211.65 12.0376C211.359 11.2635 210.926 10.6634 210.351 10.2372C209.783 9.80398 209.083 9.58736 208.252 9.58736C207.393 9.58736 206.675 9.81108 206.1 10.2585C205.525 10.706 205.092 11.3203 204.8 12.1016C204.509 12.8757 204.364 13.7564 204.364 14.7436C204.364 15.745 204.509 16.6222 204.8 17.375C205.099 18.1207 205.535 18.7031 206.111 19.1222C206.693 19.5341 207.407 19.7401 208.252 19.7401ZM227.098 23.3196C225.457 23.3196 224.04 22.9787 222.847 22.2969C221.661 21.608 220.748 20.6349 220.109 19.3778C219.47 18.1136 219.15 16.6257 219.15 14.9141C219.15 13.2308 219.47 11.7536 220.109 10.4822C220.756 9.20383 221.658 8.20952 222.815 7.49929C223.973 6.78196 225.333 6.4233 226.896 6.4233C227.904 6.4233 228.856 6.58665 229.751 6.91335C230.653 7.23295 231.448 7.73011 232.137 8.40483C232.833 9.07955 233.38 9.93892 233.778 10.983C234.175 12.0199 234.374 13.2557 234.374 14.6903V15.8729H220.962V13.2734H230.677C230.67 12.5348 230.511 11.8778 230.198 11.3026C229.886 10.7202 229.449 10.2621 228.888 9.92827C228.334 9.59446 227.687 9.42756 226.949 9.42756C226.16 9.42756 225.468 9.61932 224.871 10.0028C224.275 10.3793 223.81 10.8764 223.476 11.4943C223.149 12.1051 222.982 12.7763 222.975 13.5078V15.777C222.975 16.7287 223.149 17.5455 223.497 18.2273C223.845 18.902 224.332 19.4205 224.957 19.7827C225.582 20.1378 226.313 20.3153 227.151 20.3153C227.712 20.3153 228.22 20.2372 228.675 20.081C229.129 19.9176 229.523 19.6797 229.857 19.3672C230.191 19.0547 230.443 18.6676 230.614 18.206L234.214 18.6108C233.987 19.5625 233.554 20.3935 232.915 21.1037C232.283 21.8068 231.473 22.3537 230.486 22.7443C229.498 23.1278 228.369 23.3196 227.098 23.3196Z" fill="#1FA2FF"/>
</g>
<defs>
<clipPath id="clip0_22_11">
<rect width="236" height="30" fill="white"/>
</clipPath>
</defs>
</svg>
