<svg width="223" height="29" viewBox="0 0 223 29" fill="none" xmlns="http://www.w3.org/2000/svg">
<path d="M10.9175 1.2091L0.0532227 12.1168L10.9169 23.0235C11.151 23.2597 11.4302 23.4474 11.7383 23.5756C12.0463 23.7037 12.3771 23.7698 12.7112 23.7699C13.0453 23.77 13.3761 23.7042 13.6843 23.5762C13.9924 23.4482 14.2718 23.2607 14.506 23.0246C14.9829 22.5443 15.2502 21.8977 15.2504 21.2239C15.2506 20.5502 14.9837 19.9033 14.5072 19.4228L7.61971 12.5112L5.54127 13.8121L14.5077 4.80978C14.9849 4.33002 15.2518 3.68306 15.2504 3.00944C15.2518 2.33527 14.9845 1.68783 14.5066 1.20796C14.2723 0.971916 13.993 0.784461 13.6848 0.656537C13.3767 0.528614 13.0459 0.462785 12.7118 0.462891C12.3777 0.462997 12.0469 0.529036 11.7389 0.657154C11.4308 0.785273 11.1516 0.972904 10.9175 1.2091Z" fill="#1FA2FF"/>
<path d="M36.0134 1.20966L46.8776 12.1168L36.0139 23.0235C35.7799 23.2597 35.5006 23.4474 35.1926 23.5756C34.8845 23.7037 34.5537 23.7698 34.2196 23.7699C33.8855 23.77 33.5547 23.7042 33.2465 23.5762C32.9384 23.4482 32.659 23.2607 32.4248 23.0246C31.948 22.5443 31.6806 21.8977 31.6804 21.2239C31.6802 20.5502 31.9471 19.9033 32.4237 19.4228L39.3111 12.5118L41.3896 13.8126L32.4225 4.81035C31.9453 4.33058 31.6784 3.68362 31.6798 3.01001C31.6784 2.33583 31.9458 1.68839 32.4237 1.20853C32.6579 0.972323 32.9373 0.784733 33.2455 0.656714C33.5537 0.528696 33.8846 0.462815 34.2188 0.462921C34.5529 0.463027 34.8838 0.529117 35.1919 0.657331C35.5 0.785545 35.7793 0.973312 36.0134 1.20966Z" fill="#1FA2FF"/>
<path d="M29.7908 2.08711C29.5433 1.4592 29.0556 0.953512 28.4338 0.680027C28.1288 0.544987 27.7996 0.471529 27.4655 0.463942C27.1315 0.456355 26.7992 0.514791 26.4882 0.635837C26.1772 0.756884 25.8937 0.938115 25.6541 1.16895C25.4146 1.39978 25.2238 1.67559 25.0931 1.98027L17.167 20.2008C16.8997 20.8201 16.8898 21.5189 17.1395 22.1455C17.3869 22.7734 17.8746 23.2791 18.4964 23.5525C18.8015 23.6876 19.1307 23.761 19.4647 23.7686C19.7988 23.7762 20.131 23.7178 20.442 23.5967C20.753 23.4757 21.0366 23.2945 21.2761 23.0636C21.5157 22.8328 21.7064 22.557 21.8372 22.2523L29.7633 4.0318C30.0306 3.41246 30.0405 2.71364 29.7908 2.08711Z" fill="#1FA2FF"/>
<path d="M70.4396 7.25852H67.3374C67.218 6.59564 66.996 6.01231 66.6712 5.50852C66.3464 5.00473 65.9486 4.57718 65.478 4.22585C65.0073 3.87453 64.4804 3.60937 63.897 3.4304C63.3203 3.25142 62.7072 3.16193 62.0575 3.16193C60.8842 3.16193 59.8336 3.45691 58.9055 4.04688C57.9841 4.63684 57.255 5.50189 56.718 6.64204C56.1877 7.7822 55.9226 9.17424 55.9226 10.8182C55.9226 12.4754 56.1877 13.8741 56.718 15.0142C57.255 16.1544 57.9875 17.0161 58.9155 17.5994C59.8435 18.1828 60.8875 18.4744 62.0476 18.4744C62.6906 18.4744 63.3004 18.3883 63.8771 18.2159C64.4605 18.0369 64.9875 17.7751 65.4581 17.4304C65.9287 17.0857 66.3265 16.6648 66.6513 16.1676C66.9827 15.6638 67.2114 15.0871 67.3374 14.4375L70.4396 14.4474C70.2739 15.4484 69.9524 16.3698 69.4751 17.2116C69.0045 18.0469 68.398 18.7694 67.6555 19.3793C66.9197 19.9825 66.0779 20.4498 65.13 20.7812C64.1821 21.1127 63.148 21.2784 62.0277 21.2784C60.2644 21.2784 58.6934 20.8608 57.3146 20.0256C55.9358 19.1837 54.8487 17.9806 54.0533 16.4162C53.2644 14.8518 52.87 12.9858 52.87 10.8182C52.87 8.64394 53.2678 6.77793 54.0632 5.22017C54.8587 3.65578 55.9458 2.45597 57.3246 1.62074C58.7034 0.778882 60.2711 0.357954 62.0277 0.357954C63.1082 0.357954 64.1158 0.513731 65.0504 0.825284C65.9917 1.13021 66.8369 1.58097 67.5859 2.17756C68.335 2.76752 68.9548 3.49006 69.4453 4.34517C69.9358 5.19365 70.2673 6.16477 70.4396 7.25852ZM80.3107 21.3082C78.8789 21.3082 77.6294 20.9801 76.5621 20.3239C75.4949 19.6676 74.6663 18.7495 74.0763 17.5696C73.4864 16.3897 73.1914 15.0109 73.1914 13.4332C73.1914 11.849 73.4864 10.4635 74.0763 9.27699C74.6663 8.09043 75.4949 7.16903 76.5621 6.51278C77.6294 5.85653 78.8789 5.52841 80.3107 5.52841C81.7425 5.52841 82.9921 5.85653 84.0593 6.51278C85.1265 7.16903 85.9551 8.09043 86.5451 9.27699C87.1351 10.4635 87.43 11.849 87.43 13.4332C87.43 15.0109 87.1351 16.3897 86.5451 17.5696C85.9551 18.7495 85.1265 19.6676 84.0593 20.3239C82.9921 20.9801 81.7425 21.3082 80.3107 21.3082ZM80.3207 18.8125C81.2487 18.8125 82.0176 18.5672 82.6275 18.0767C83.2373 17.5862 83.6881 16.9332 83.9798 16.1179C84.2781 15.3026 84.4272 14.4044 84.4272 13.4233C84.4272 12.4489 84.2781 11.554 83.9798 10.7386C83.6881 9.91667 83.2373 9.2571 82.6275 8.75994C82.0176 8.26278 81.2487 8.0142 80.3207 8.0142C79.386 8.0142 78.6104 8.26278 77.994 8.75994C77.3841 9.2571 76.93 9.91667 76.6317 10.7386C76.3401 11.554 76.1942 12.4489 76.1942 13.4233C76.1942 14.4044 76.3401 15.3026 76.6317 16.1179C76.93 16.9332 77.3841 17.5862 77.994 18.0767C78.6104 18.5672 79.386 18.8125 80.3207 18.8125ZM96.4659 21.2983C95.233 21.2983 94.1326 20.9834 93.1648 20.3537C92.2036 19.7173 91.4479 18.8125 90.8977 17.6392C90.3542 16.4593 90.0824 15.044 90.0824 13.3935C90.0824 11.7429 90.3575 10.331 90.9077 9.15767C91.4645 7.98437 92.2268 7.08617 93.1946 6.46307C94.1624 5.83996 95.2595 5.52841 96.4858 5.52841C97.4337 5.52841 98.196 5.6875 98.7727 6.00568C99.3561 6.31723 99.8068 6.68182 100.125 7.09943C100.45 7.51705 100.702 7.88494 100.881 8.20312H101.06V0.636363H104.033V21H101.129V18.6236H100.881C100.702 18.9484 100.443 19.3196 100.105 19.7372C99.7737 20.1548 99.3163 20.5194 98.733 20.831C98.1496 21.1425 97.3939 21.2983 96.4659 21.2983ZM97.1222 18.7628C97.9773 18.7628 98.6998 18.5374 99.2898 18.0866C99.8864 17.6293 100.337 16.9962 100.642 16.1875C100.954 15.3788 101.109 14.4375 101.109 13.3636C101.109 12.303 100.957 11.375 100.652 10.5795C100.347 9.78409 99.8996 9.1643 99.3097 8.72017C98.7197 8.27604 97.9905 8.05398 97.1222 8.05398C96.2273 8.05398 95.4815 8.28598 94.8849 8.75C94.2884 9.21401 93.8376 9.84706 93.5327 10.6491C93.2344 11.4512 93.0852 12.3561 93.0852 13.3636C93.0852 14.3845 93.2377 15.3026 93.5426 16.1179C93.8475 16.9332 94.2983 17.5795 94.8949 18.0568C95.4981 18.5275 96.2405 18.7628 97.1222 18.7628ZM114.858 21.3082C113.354 21.3082 112.058 20.9867 110.971 20.3438C109.89 19.6941 109.055 18.7827 108.465 17.6094C107.882 16.4295 107.59 15.0473 107.59 13.4631C107.59 11.8987 107.882 10.5199 108.465 9.3267C109.055 8.13352 109.877 7.20218 110.931 6.53267C111.991 5.86316 113.231 5.52841 114.65 5.52841C115.511 5.52841 116.346 5.67093 117.155 5.95597C117.964 6.241 118.69 6.68845 119.333 7.2983C119.976 7.90814 120.483 8.70028 120.854 9.67472C121.225 10.6425 121.411 11.8191 121.411 13.2045V14.2585H109.27V12.0312H118.498C118.498 11.2491 118.338 10.5563 118.02 9.95312C117.702 9.34328 117.255 8.86269 116.678 8.51136C116.108 8.16004 115.438 7.98438 114.669 7.98438C113.834 7.98438 113.105 8.18987 112.482 8.60085C111.865 9.00521 111.388 9.53551 111.05 10.1918C110.719 10.8414 110.553 11.5473 110.553 12.3097V14.0497C110.553 15.0705 110.732 15.9389 111.09 16.6548C111.454 17.3707 111.962 17.9176 112.611 18.2955C113.261 18.6667 114.02 18.8523 114.888 18.8523C115.452 18.8523 115.965 18.7727 116.429 18.6136C116.893 18.4479 117.294 18.2027 117.632 17.8778C117.971 17.553 118.229 17.152 118.408 16.6747L121.222 17.1818C120.997 18.0104 120.592 18.7363 120.009 19.3594C119.432 19.9759 118.706 20.4564 117.831 20.8011C116.963 21.1392 115.972 21.3082 114.858 21.3082Z" fill="#150139"/>
<path d="M125.349 21V0.636363H128.421V18.3551H137.648V21H125.349ZM147.348 21.3082C145.916 21.3082 144.666 20.9801 143.599 20.3239C142.532 19.6676 141.703 18.7495 141.113 17.5696C140.523 16.3897 140.229 15.0109 140.229 13.4332C140.229 11.849 140.523 10.4635 141.113 9.27699C141.703 8.09043 142.532 7.16903 143.599 6.51278C144.666 5.85653 145.916 5.52841 147.348 5.52841C148.78 5.52841 150.029 5.85653 151.096 6.51278C152.164 7.16903 152.992 8.09043 153.582 9.27699C154.172 10.4635 154.467 11.849 154.467 13.4332C154.467 15.0109 154.172 16.3897 153.582 17.5696C152.992 18.7495 152.164 19.6676 151.096 20.3239C150.029 20.9801 148.78 21.3082 147.348 21.3082ZM147.358 18.8125C148.286 18.8125 149.055 18.5672 149.665 18.0767C150.274 17.5862 150.725 16.9332 151.017 16.1179C151.315 15.3026 151.464 14.4044 151.464 13.4233C151.464 12.4489 151.315 11.554 151.017 10.7386C150.725 9.91667 150.274 9.2571 149.665 8.75994C149.055 8.26278 148.286 8.0142 147.358 8.0142C146.423 8.0142 145.648 8.26278 145.031 8.75994C144.421 9.2571 143.967 9.91667 143.669 10.7386C143.377 11.554 143.231 12.4489 143.231 13.4233C143.231 14.4044 143.377 15.3026 143.669 16.1179C143.967 16.9332 144.421 17.5862 145.031 18.0767C145.648 18.5672 146.423 18.8125 147.358 18.8125ZM167.46 14.6662V5.72727H170.443V21H167.52V18.3551H167.361C167.01 19.1705 166.446 19.8499 165.671 20.3935C164.902 20.9304 163.944 21.1989 162.797 21.1989C161.816 21.1989 160.948 20.9834 160.192 20.5526C159.443 20.1151 158.853 19.4688 158.422 18.6136C157.998 17.7585 157.786 16.7012 157.786 15.4418V5.72727H160.759V15.0838C160.759 16.1245 161.047 16.9531 161.624 17.5696C162.2 18.1861 162.95 18.4943 163.871 18.4943C164.428 18.4943 164.981 18.3551 165.531 18.0767C166.088 17.7983 166.549 17.3774 166.914 16.8139C167.285 16.2505 167.467 15.5346 167.46 14.6662ZM177.411 11.9318V21H174.438V5.72727H177.292V8.21307H177.481C177.832 7.40436 178.382 6.75473 179.131 6.2642C179.887 5.77367 180.838 5.52841 181.985 5.52841C183.026 5.52841 183.937 5.74716 184.719 6.18466C185.501 6.61553 186.108 7.25852 186.539 8.11364C186.97 8.96875 187.185 10.026 187.185 11.2855V21H184.212V11.6435C184.212 10.5365 183.924 9.6714 183.347 9.0483C182.77 8.41856 181.978 8.10369 180.971 8.10369C180.281 8.10369 179.668 8.25284 179.131 8.55114C178.601 8.84943 178.18 9.28693 177.868 9.86364C177.564 10.4337 177.411 11.1231 177.411 11.9318ZM197.576 27.0455C196.363 27.0455 195.319 26.8864 194.444 26.5682C193.575 26.25 192.866 25.8291 192.316 25.3054C191.766 24.7817 191.355 24.2083 191.083 23.5852L193.638 22.5312C193.817 22.8229 194.056 23.1312 194.354 23.456C194.659 23.7874 195.07 24.0691 195.587 24.3011C196.111 24.5331 196.784 24.6491 197.606 24.6491C198.733 24.6491 199.664 24.3741 200.4 23.8239C201.135 23.2803 201.503 22.4119 201.503 21.2188V18.2159H201.314C201.135 18.5407 200.877 18.902 200.539 19.2997C200.207 19.6974 199.75 20.0421 199.167 20.3338C198.583 20.6255 197.824 20.7713 196.89 20.7713C195.683 20.7713 194.596 20.4896 193.628 19.9261C192.667 19.3561 191.905 18.5175 191.341 17.4105C190.785 16.2969 190.506 14.928 190.506 13.304C190.506 11.6799 190.781 10.2879 191.331 9.12784C191.888 7.9678 192.651 7.07955 193.618 6.46307C194.586 5.83996 195.683 5.52841 196.91 5.52841C197.858 5.52841 198.623 5.6875 199.206 6.00568C199.79 6.31723 200.244 6.68182 200.569 7.09943C200.9 7.51705 201.155 7.88494 201.334 8.20312H201.553V5.72727H204.466V21.3381C204.466 22.6506 204.162 23.7277 203.552 24.5696C202.942 25.4115 202.117 26.0346 201.076 26.4389C200.042 26.8433 198.875 27.0455 197.576 27.0455ZM197.546 18.3054C198.401 18.3054 199.124 18.1065 199.714 17.7088C200.31 17.3045 200.761 16.7277 201.066 15.9787C201.377 15.223 201.533 14.3182 201.533 13.2642C201.533 12.2367 201.381 11.3319 201.076 10.5497C200.771 9.76752 200.323 9.15767 199.733 8.72017C199.144 8.27604 198.414 8.05398 197.546 8.05398C196.651 8.05398 195.905 8.28598 195.309 8.75C194.712 9.20739 194.261 9.83049 193.956 10.6193C193.658 11.4081 193.509 12.2898 193.509 13.2642C193.509 14.2652 193.662 15.1435 193.966 15.8991C194.271 16.6548 194.722 17.2448 195.319 17.669C195.922 18.0933 196.664 18.3054 197.546 18.3054ZM215.036 21.3082C213.531 21.3082 212.235 20.9867 211.148 20.3438C210.068 19.6941 209.233 18.7827 208.643 17.6094C208.059 16.4295 207.768 15.0473 207.768 13.4631C207.768 11.8987 208.059 10.5199 208.643 9.3267C209.233 8.13352 210.055 7.20218 211.108 6.53267C212.169 5.86316 213.409 5.52841 214.827 5.52841C215.689 5.52841 216.524 5.67093 217.333 5.95597C218.142 6.241 218.867 6.68845 219.51 7.2983C220.153 7.90814 220.661 8.70028 221.032 9.67472C221.403 10.6425 221.589 11.8191 221.589 13.2045V14.2585H209.448V12.0312H218.675C218.675 11.2491 218.516 10.5563 218.198 9.95312C217.88 9.34328 217.432 8.86269 216.856 8.51136C216.286 8.16004 215.616 7.98438 214.847 7.98438C214.012 7.98438 213.283 8.18987 212.66 8.60085C212.043 9.00521 211.566 9.53551 211.228 10.1918C210.896 10.8414 210.731 11.5473 210.731 12.3097V14.0497C210.731 15.0705 210.91 15.9389 211.268 16.6548C211.632 17.3707 212.139 17.9176 212.789 18.2955C213.439 18.6667 214.198 18.8523 215.066 18.8523C215.629 18.8523 216.143 18.7727 216.607 18.6136C217.071 18.4479 217.472 18.2027 217.81 17.8778C218.148 17.553 218.407 17.152 218.586 16.6747L221.4 17.1818C221.174 18.0104 220.77 18.7363 220.187 19.3594C219.61 19.9759 218.884 20.4564 218.009 20.8011C217.141 21.1392 216.15 21.3082 215.036 21.3082Z" fill="#1FA2FF"/>
</svg>
