<svg width="96" height="96" viewBox="0 0 96 96" fill="none" xmlns="http://www.w3.org/2000/svg">
<g clip-path="url(#clip0_21_2)">
<path d="M23.247 27.3454L2.10352 48.5038L23.2459 69.6599C23.7014 70.1182 24.2448 70.4823 24.8444 70.7309C25.4439 70.9795 26.0876 71.1077 26.7379 71.1079C27.3882 71.1081 28.032 70.9804 28.6317 70.7321C29.2314 70.4839 29.775 70.1202 30.2309 69.6622C31.1589 68.7306 31.6792 67.4762 31.6796 66.1693C31.68 64.8624 31.1605 63.6077 30.2331 62.6755L16.8291 49.2688L12.7841 51.792L30.2342 34.3298C31.1629 33.3992 31.6823 32.1442 31.6796 30.8376C31.6823 29.5298 31.162 28.274 30.232 27.3432C29.7761 26.8853 29.2324 26.5217 28.6327 26.2735C28.033 26.0254 27.3892 25.8977 26.739 25.8979C26.0888 25.8981 25.4451 26.0262 24.8456 26.2747C24.246 26.5232 23.7026 26.8872 23.247 27.3454Z" fill="#1FA2FF"/>
<path d="M72.0874 27.3465L93.2309 48.5038L72.0885 69.66C71.633 70.1183 71.0896 70.4823 70.4901 70.7309C69.8905 70.9795 69.2468 71.1077 68.5965 71.1079C67.9463 71.1081 67.3025 70.9804 66.7028 70.7321C66.1031 70.4839 65.5594 70.1202 65.1036 69.6622C64.1756 68.7306 63.6552 67.4762 63.6548 66.1693C63.6544 64.8624 64.1739 63.6077 65.1014 62.6755L78.5054 49.2699L82.5504 51.7931L65.0991 34.3309C64.1704 33.4003 63.651 32.1453 63.6537 30.8387C63.651 29.5309 64.1713 28.2751 65.1014 27.3442C65.5572 26.8861 66.1009 26.5222 66.7007 26.2739C67.3006 26.0255 67.9445 25.8977 68.5949 25.8979C69.2453 25.8982 69.8891 26.0264 70.4888 26.2751C71.0884 26.5238 71.6319 26.888 72.0874 27.3465Z" fill="#1FA2FF"/>
<path d="M59.9774 29.0485C59.4958 27.8305 58.5467 26.8495 57.3365 26.319C56.7428 26.0571 56.1022 25.9146 55.452 25.8999C54.8019 25.8852 54.1553 25.9985 53.5501 26.2333C52.9448 26.4681 52.393 26.8197 51.9268 27.2674C51.4606 27.7152 51.0894 28.2502 50.8349 28.8412L35.4095 64.1846C34.8893 65.3859 34.8701 66.7415 35.3559 67.9568C35.8376 69.1748 36.7867 70.1557 37.9968 70.6862C38.5905 70.9482 39.2311 71.0907 39.8813 71.1054C40.5314 71.1201 41.178 71.0067 41.7832 70.7719C42.3885 70.5371 42.9403 70.1856 43.4065 69.7378C43.8727 69.2901 44.2439 68.7551 44.4984 68.164L59.9238 32.8207C60.444 31.6193 60.4633 30.2638 59.9774 29.0485Z" fill="#1FA2FF"/>
</g>
<g clip-path="url(#clip1_21_2)">
<path d="M22.7089 27.3964L1.10577 49.0147L22.7078 70.6308C23.1732 71.0991 23.7284 71.4711 24.341 71.7251C24.9536 71.9791 25.6113 72.11 26.2757 72.1102C26.9401 72.1105 27.5979 71.9799 28.2106 71.7263C28.8234 71.4727 29.3789 71.101 29.8446 70.6331C30.7928 69.6812 31.3244 68.3996 31.3248 67.0643C31.3253 65.729 30.7945 64.447 29.8469 63.4945L16.1515 49.7964L12.0185 52.3745L29.848 34.5326C30.7969 33.5818 31.3276 32.2996 31.3249 30.9645C31.3276 29.6283 30.796 28.3452 29.8457 27.3941C29.3799 26.9263 28.8244 26.5547 28.2117 26.3012C27.5989 26.0477 26.9412 25.9172 26.2768 25.9174C25.6125 25.9176 24.9548 26.0485 24.3422 26.3024C23.7297 26.5564 23.1744 26.9282 22.7089 27.3964Z" fill="#1FA2FF"/>
<path d="M72.6111 27.3975L94.2143 49.0147L72.6122 70.6308C72.1468 71.0991 71.5916 71.4711 70.979 71.7251C70.3664 71.9791 69.7087 72.11 69.0443 72.1102C68.3799 72.1105 67.7222 71.9799 67.1094 71.7263C66.4966 71.4727 65.9412 71.101 65.4755 70.6331C64.5272 69.6812 63.9956 68.3996 63.9952 67.0643C63.9948 65.729 64.5255 64.447 65.4732 63.4945L79.1686 49.7975L83.3015 52.3756L65.4709 34.5338C64.522 33.5829 63.9913 32.3007 63.994 30.9656C63.9913 29.6295 64.5229 28.3463 65.4732 27.3952C65.9389 26.9271 66.4944 26.5553 67.1073 26.3016C67.7202 26.0478 68.3781 25.9173 69.0426 25.9175C69.7071 25.9177 70.365 26.0487 70.9777 26.3028C71.5904 26.5569 72.1457 26.929 72.6111 27.3975Z" fill="#1FA2FF"/>
<path d="M60.2378 29.1365C59.7457 27.892 58.776 26.8897 57.5395 26.3477C56.9329 26.0801 56.2783 25.9345 55.6141 25.9194C54.9498 25.9044 54.2892 26.0202 53.6708 26.2601C53.0523 26.5 52.4885 26.8592 52.0122 27.3167C51.5358 27.7742 51.1566 28.3209 50.8965 28.9247L35.1358 65.0364C34.6043 66.2639 34.5847 67.6489 35.0811 68.8906C35.5732 70.1351 36.5429 71.1374 37.7793 71.6794C38.386 71.947 39.0405 72.0926 39.7048 72.1077C40.3691 72.1227 41.0297 72.0069 41.6481 71.767C42.2666 71.5271 42.8304 71.1679 43.3067 70.7104C43.783 70.2529 44.1623 69.7062 44.4223 69.1024L60.1831 32.9907C60.7146 31.7632 60.7342 30.3782 60.2378 29.1365Z" fill="#1FA2FF"/>
</g>
<defs>
<clipPath id="clip0_21_2">
<rect width="92" height="46.5542" fill="white" transform="translate(2 25)"/>
</clipPath>
<clipPath id="clip1_21_2">
<rect width="94" height="47.5663" fill="white" transform="translate(1 25)"/>
</clipPath>
</defs>
</svg>
